{"title":"Faster(2010)(divx)(CAM)(nlsubs)(Black Pearl)-TBS","uid":6044461,"size":916349167,"categoryP":"video","categoryS":"movies","magnet":"?xt=urn:btih:629f438803a9635ce400f50bbee1fa1b5bccdc9e&amp;dn=Faster%282010%29%28divx%29%28CAM%29%28nlsubs%29%28Black+Pearl%29-TBS&amp;tr=udp%3A%2F%2Ftracker.openbittorrent.com%3A80&amp;tr=udp%3A%2F%2Fopen.demonii.com%3A1337&amp;tr=udp%3A%2F%2Ftracker.coppersurfer.tk%3A6969&amp;tr=udp%3A%2F%2Fexodus.desync.com%3A6969","seeders":0,"leechers":0,"uploader":"blackpearl01","files":-1,"time":1292459431,"description":"Faster (2010) \n\nVanaf 3 maart 2011 in de bioscoop\n\nVerenigde Staten\nActie / Drama\n95 minuten\n\ngeregisseerd door George Tillman Jr.\nmet Dwayne Johnson, Carla Gugino en Billy Bob Thornton\n\nDutch:\n'Faster' vertelt het verhaal van Driver (Dwayne Johnson), een man die net vrijkomt na een jarenlange gevangenisstraf. Hij zat vast omdat hij er tijdens een bankoverval in is geluisd. Daarnaast is zijn broer toen vermoord. Nu wil Driver maar ÃƒÂ©ÃƒÂ©n ding; zijn broer wreken.\n\nEnglish:\nAn ex-con sets out to avenge his brother's death after they were double-crossed during a heist years ago. During his campaign, however, he's tracked by a veteran cop and an egocentric hit man.\n\n******************************************\nDvd Info:\n\nRelease name.......: Faster 2010 Cam XviD-FLAWL3SS \n\nSource.............: CAM\n\nVideo\nID                               : 0\nFormat                           : xvid\nCodec ID                         : xvid\nDuration                         : 1h 33mn\nBit rate                         : 1 200 Kbps\nWidth                            : 720 pixels\nHeight                           : 480 pixels\nDisplay aspect ratio             : 3:2\nFrame rate                       : 29.970 fps\nStandard                         : NTSC\nBits/(Pixel*Frame)               : 0.116\nStream size                      : 802 MiB (89%)\n\nAudio\nID                               : 1\nFormat                           : MPEG Audio\nFormat version                   : Version 1\nFormat profile                   : Layer 3\nMode                             : Joint stereo\nMode extension                   : MS Stereo\nCodec ID                         : 55\nCodec ID/Hint                    : MP3\nDuration                         : 1h 33mn\nBit rate mode                    : Constant\nBit rate                         : 128 Kbps\nChannel(s)                       : 2 channels\nSampling rate                    : 48.0 KHz\nCompression mode                 : Lossy\nStream size                      : 85.6 MiB (10%)\nAlignment                        : Aligned on interleaves\nInterleave, duration             : 24 ms (0.72 video frame)\nInterleave, preload duration     : 24 ms\nWriting library                  : LAME3.97\n\nSubtitles..........: NL cust. Fast Gollums Twilight Release Team, weer geheel op audio, top werk!\n\nBewerking..........: Dejavu\n\n  &lt;a href=&quot;\nhttp://www.moviemeter.nl/film/64601&quot; rel=&quot;nofollow&quot; target=&quot;_NEW&quot;&gt;\nhttp://www.moviemeter.nl/film/64601&lt;/a&gt;  &lt;a href=&quot;\nhttp://www.imdb.com/title/tt1433108&quot; rel=&quot;nofollow&quot; target=&quot;_NEW&quot;&gt;\nhttp://www.imdb.com/title/tt1433108&lt;/a&gt;\n\n******************************************\n\nBrought to you by \n\nBlack Pearl\n\n******************************************\n\n\t\t","torrent":{"xt":"urn:btih:629f438803a9635ce400f50bbee1fa1b5bccdc9e","amp;dn":"Faster%282010%29%28divx%29%28CAM%29%28nlsubs%29%28Black+Pearl%29-TBS","amp;tr":["udp%3A%2F%2Ftracker.openbittorrent.com%3A80","udp%3A%2F%2Fopen.demonii.com%3A1337","udp%3A%2F%2Ftracker.coppersurfer.tk%3A6969","udp%3A%2F%2Fexodus.desync.com%3A6969"],"infoHash":"629f438803a9635ce400f50bbee1fa1b5bccdc9e","infoHashBuffer":{"type":"Buffer","data":[98,159,67,136,3,169,99,92,228,0,245,11,190,225,250,27,91,204,220,158]},"announce":[],"urlList":[]}}